<svg width="30" height="30" viewBox="0 0 30 30" fill="none" xmlns="http://www.w3.org/2000/svg">
<g clip-path="url(#clip0_27_123)">
<path d="M23.7094 18.5839C23.0953 17.9444 22.3544 17.6025 21.5693 17.6025C20.7905 17.6025 20.0434 17.9381 19.4039 18.5776L17.403 20.5721C17.2384 20.4834 17.0738 20.4011 16.9155 20.3188C16.6876 20.2048 16.4723 20.0972 16.2887 19.9832C14.4145 18.7929 12.7113 17.2416 11.0777 15.2345C10.2862 14.234 9.75435 13.3919 9.36811 12.5371C9.88731 12.0623 10.3685 11.5684 10.8371 11.0935C11.0144 10.9162 11.1916 10.7326 11.3689 10.5553C12.6986 9.22567 12.6986 7.50344 11.3689 6.17379L9.64038 4.44523C9.44409 4.24895 9.24148 4.04633 9.05153 3.84372C8.67163 3.45115 8.27273 3.04592 7.86117 2.66602C7.24699 2.05818 6.51251 1.73526 5.74005 1.73526C4.96758 1.73526 4.22044 2.05818 3.58727 2.66602C3.58094 2.67235 3.58094 2.67235 3.5746 2.67868L1.42182 4.85046C0.611365 5.66092 0.149151 6.64866 0.0478436 7.7947C-0.104117 9.64356 0.440409 11.3658 0.858302 12.4928C1.88404 15.2598 3.41631 17.8241 5.70206 20.5721C8.47534 23.8836 11.8122 26.4986 15.6238 28.3411C17.0801 29.0312 19.024 29.848 21.1957 29.9873C21.3287 29.9937 21.468 30 21.5946 30C23.0573 30 24.2856 29.4745 25.248 28.4297C25.2544 28.4171 25.267 28.4107 25.2734 28.3981C25.6026 27.9992 25.9825 27.6383 26.3814 27.252C26.6537 26.9924 26.9323 26.7202 27.2045 26.4352C27.8314 25.7831 28.1606 25.0233 28.1606 24.2445C28.1606 23.4593 27.825 22.7059 27.1855 22.0727L23.7094 18.5839ZM25.9762 25.2512C25.9698 25.2512 25.9698 25.2575 25.9762 25.2512C25.7292 25.5171 25.476 25.7577 25.2037 26.0237C24.7921 26.4162 24.3743 26.8278 23.9817 27.29C23.3422 27.9738 22.5887 28.2968 21.601 28.2968C21.506 28.2968 21.4047 28.2968 21.3097 28.2904C19.4292 28.1701 17.6816 27.4357 16.371 26.8088C12.7872 25.0739 9.64038 22.6109 7.02538 19.4894C4.86627 16.887 3.42264 14.481 2.46656 11.8976C1.87771 10.3211 1.66243 9.0927 1.7574 7.934C1.82072 7.19319 2.10565 6.57901 2.63118 6.05348L4.79029 3.89437C5.10054 3.60311 5.42979 3.44482 5.75271 3.44482C6.15161 3.44482 6.47452 3.68543 6.67714 3.88804C6.68347 3.89437 6.6898 3.9007 6.69613 3.90704C7.08237 4.26794 7.44961 4.64151 7.83584 5.04041C8.03212 5.24303 8.23474 5.44564 8.43735 5.65459L10.1659 7.38314C10.8371 8.0543 10.8371 8.67481 10.1659 9.34597C9.98229 9.52959 9.805 9.71321 9.62138 9.8905C9.08952 10.435 8.58298 10.9416 8.03212 11.4354C8.01946 11.4481 8.0068 11.4544 8.00047 11.4671C7.45594 12.0116 7.55725 12.5435 7.67122 12.9044C7.67755 12.9234 7.68388 12.9424 7.69021 12.9614C8.13976 14.0504 8.77293 15.0762 9.73535 16.2982L9.74168 16.3045C11.4892 18.4573 13.3318 20.1352 15.3642 21.4205C15.6238 21.5852 15.8898 21.7181 16.143 21.8448C16.371 21.9587 16.5863 22.0664 16.7699 22.1803C16.7952 22.193 16.8205 22.212 16.8459 22.2247C17.0611 22.3323 17.2638 22.383 17.4727 22.383C17.9982 22.383 18.3275 22.0537 18.4351 21.9461L20.6006 19.7806C20.8158 19.5653 21.1577 19.3057 21.5566 19.3057C21.9492 19.3057 22.2721 19.5527 22.4684 19.768C22.4747 19.7743 22.4747 19.7743 22.4811 19.7806L25.9698 23.2694C26.622 23.9152 26.622 24.5801 25.9762 25.2512Z" fill="black"/>
<path d="M16.2124 7.1362C17.8714 7.41479 19.3783 8.19992 20.5813 9.40295C21.7843 10.606 22.5631 12.1129 22.8481 13.7718C22.9177 14.1897 23.2786 14.481 23.6902 14.481C23.7408 14.481 23.7852 14.4746 23.8358 14.4683C24.3044 14.3923 24.6146 13.9491 24.5386 13.4806C24.1967 11.4734 23.247 9.64355 21.797 8.19359C20.347 6.74363 18.5172 5.79388 16.51 5.45197C16.0415 5.37598 15.6046 5.68624 15.5223 6.14845C15.44 6.61067 15.7439 7.06022 16.2124 7.1362Z" fill="black"/>
<path d="M29.9652 13.2336C29.4016 9.92848 27.844 6.92092 25.4507 4.52754C23.0573 2.13415 20.0497 0.576553 16.7446 0.0130316C16.2823 -0.0692806 15.8455 0.247305 15.7631 0.709519C15.6872 1.17807 15.9974 1.61495 16.466 1.69727C19.4165 2.19747 22.1075 3.59678 24.2476 5.73056C26.3877 7.87068 27.7807 10.5617 28.2809 13.5122C28.3506 13.9301 28.7115 14.2214 29.123 14.2214C29.1737 14.2214 29.218 14.215 29.2687 14.2087C29.7309 14.1391 30.0475 13.6958 29.9652 13.2336Z" fill="black"/>
</g>
<defs>
<clipPath id="clip0_27_123">
<rect width="30" height="30" fill="white"/>
</clipPath>
</defs>
</svg>
