<svg width="36" height="36" viewBox="0 0 36 36" fill="none" xmlns="http://www.w3.org/2000/svg">
<g clip-path="url(#clip0_27_129)">
<path d="M27.3386 11.9C27.0651 11.6244 26.62 11.6226 26.3443 11.896C26.0686 12.1696 26.0668 12.6148 26.3403 12.8905L26.3445 12.8948C26.4814 13.0329 26.6609 13.1016 26.8405 13.1016C27.0197 13.1016 27.1991 13.0331 27.3368 12.8966C27.6125 12.6231 27.6121 12.1757 27.3386 11.9Z" fill="black"/>
<path d="M35.7941 20.3555L29.2636 13.825C28.989 13.5505 28.5438 13.5505 28.2691 13.825C27.9946 14.0996 27.9946 14.5448 28.2691 14.8195L33.4534 20.0037H21.0907C20.0651 20.0037 19.2309 19.1694 19.2309 18.1439V5.78123L24.2359 10.7862C24.5105 11.0607 24.9557 11.0607 25.2304 10.7862C25.5049 10.5116 25.5049 10.0664 25.2304 9.79178L18.879 3.44052C18.6045 3.16602 18.1593 3.16602 17.8847 3.44052L6.67547 14.65C6.4009 14.9245 6.4009 15.3697 6.67547 15.6444L23.5905 32.5593C23.7223 32.6912 23.9012 32.7653 24.0877 32.7653C24.2741 32.7653 24.453 32.6912 24.5848 32.5593L35.7941 21.35C35.926 21.2181 36.0001 21.0393 36.0001 20.8528C36 20.6663 35.9259 20.4874 35.7941 20.3555ZM17.8248 5.48936V14.4441H8.87006L17.8248 5.48936ZM23.3845 30.3646L8.87006 15.8503H17.8248V18.1439C17.8248 19.9448 19.29 21.4099 21.0909 21.4099H23.3845V30.3646ZM24.7907 30.3647V21.4099H33.7454L24.7907 30.3647Z" fill="black"/>
<path d="M4.82562 17.8593H0.703125C0.314789 17.8593 0 18.1742 0 18.5624C0 18.9507 0.314789 19.2656 0.703125 19.2656H4.82562C5.21395 19.2656 5.52874 18.9508 5.52874 18.5624C5.52874 18.1742 5.21395 17.8593 4.82562 17.8593Z" fill="black"/>
<path d="M6.92198 17.8593H6.91144C6.5231 17.8593 6.20831 18.1742 6.20831 18.5624C6.20831 18.9507 6.5231 19.2656 6.91144 19.2656H6.92198C7.31032 19.2656 7.62511 18.9507 7.62511 18.5624C7.62511 18.1742 7.31032 17.8593 6.92198 17.8593Z" fill="black"/>
<path d="M2.95425 10.4767H0.704041C0.315705 10.4767 0.000915527 10.7916 0.000915527 11.1798C0.000915527 11.5681 0.315705 11.883 0.704041 11.883H2.95425C3.34259 11.883 3.65738 11.5681 3.65738 11.1798C3.65738 10.7916 3.34259 10.4767 2.95425 10.4767Z" fill="black"/>
<path d="M7.91088 10.4767H5.2511C4.86276 10.4767 4.54797 10.7916 4.54797 11.1798C4.54797 11.5681 4.86276 11.883 5.2511 11.883H7.91088C8.29922 11.883 8.61401 11.5681 8.61401 11.1798C8.61401 10.7916 8.29922 10.4767 7.91088 10.4767Z" fill="black"/>
<path d="M9.4417 21.7264H5.50427C5.11594 21.7264 4.80115 22.0413 4.80115 22.4295C4.80115 22.8178 5.11594 23.1327 5.50427 23.1327H9.4417C9.83004 23.1327 10.1448 22.8178 10.1448 22.4295C10.1448 22.0413 9.82997 21.7264 9.4417 21.7264Z" fill="black"/>
<path d="M12.5162 26.2263H2.60217C2.21384 26.2263 1.89905 26.5411 1.89905 26.9294C1.89905 27.3177 2.21384 27.6325 2.60217 27.6325H12.5162C12.9045 27.6325 13.2193 27.3177 13.2193 26.9294C13.2193 26.5411 12.9045 26.2263 12.5162 26.2263Z" fill="black"/>
</g>
<defs>
<clipPath id="clip0_27_129">
<rect width="36" height="36" fill="white"/>
</clipPath>
</defs>
</svg>
