<svg width="52" height="52" viewBox="0 0 52 52" fill="none" xmlns="http://www.w3.org/2000/svg">
<g clip-path="url(#clip0_27_112)">
<path d="M44.3848 7.61526C39.474 2.70451 32.9448 0 26 0C19.0552 0 12.526 2.70451 7.61516 7.61526C2.70451 12.526 0 19.0552 0 26C0 32.9448 2.70451 39.474 7.61516 44.3847C12.526 49.2955 19.0552 52 26 52C32.9448 52 39.474 49.2955 44.3848 44.3847C49.2955 39.474 52 32.9448 52 26C52 19.0552 49.2955 12.526 44.3848 7.61526ZM26 48.9531C19.2086 48.9531 13.0978 45.9873 8.89159 41.284C11.4992 34.371 18.1744 29.4531 26 29.4531C20.9517 29.4531 16.8594 25.3608 16.8594 20.3125C16.8594 15.2642 20.9517 11.1719 26 11.1719C31.0483 11.1719 35.1406 15.2642 35.1406 20.3125C35.1406 25.3608 31.0483 29.4531 26 29.4531C33.8256 29.4531 40.5008 34.371 43.1084 41.284C38.9022 45.9873 32.7914 48.9531 26 48.9531Z" fill="#3045FD"/>
</g>
<defs>
<clipPath id="clip0_27_112">
<rect width="52" height="52" fill="white"/>
</clipPath>
</defs>
</svg>
